<svg width="90" height="85" viewBox="0 0 90 85" fill="none" xmlns="http://www.w3.org/2000/svg">
<path fill-rule="evenodd" clip-rule="evenodd" d="M17.3528 22.9147C20.822 17.2446 23.5164 11.0431 26.0832 5.01392C26.6314 3.71404 26.0506 2.19912 24.7614 1.73079C23.4984 1.16595 22.0214 1.78825 21.5004 2.99191C19.0179 8.83703 16.4272 14.8588 13.1042 20.2585C12.3897 21.4075 12.7516 22.9653 13.9207 23.7114C15.0889 24.4573 16.6374 24.0634 17.3528 22.9147Z" fill="#E18A07" style="fill:#E18A07;fill:color(display-p3 0.8824 0.5412 0.0275);fill-opacity:1;"/>
<path fill-rule="evenodd" clip-rule="evenodd" d="M36.5786 48.5086C49.4949 41.456 61.4629 32.7845 74.5963 26.0011C75.8111 25.4092 76.2982 23.8842 75.6647 22.666C75.0302 21.4474 73.5331 20.9207 72.2911 21.6088C59.1279 28.3838 47.131 37.0472 34.1849 44.0913C32.9659 44.786 32.5174 46.3215 33.1769 47.5471C33.8626 48.6762 35.3597 49.2032 36.5786 48.5086Z" fill="#E18A07" style="fill:#E18A07;fill:color(display-p3 0.8824 0.5412 0.0275);fill-opacity:1;"/>
<path fill-rule="evenodd" clip-rule="evenodd" d="M70.2334 78.0792C64.3626 76.7315 58.492 75.3832 52.6203 74.0352C51.2942 73.6604 49.9438 74.5263 49.6274 75.8917C49.3121 77.2574 50.169 78.5382 51.496 78.9133C57.3764 80.2638 63.2557 81.6145 69.1351 82.9646C70.4883 83.2432 71.8319 82.3758 72.1406 81.0082C72.422 79.7368 71.5857 78.3575 70.2334 78.0792Z" fill="#E18A07" style="fill:#E18A07;fill:color(display-p3 0.8824 0.5412 0.0275);fill-opacity:1;"/>
</svg>
