<svg width="42" height="41" viewBox="0 0 42 41" fill="none" xmlns="http://www.w3.org/2000/svg">
<path fill-rule="evenodd" clip-rule="evenodd" d="M34.8977 23.162C32.774 27.0077 31.778 30.9922 30.5362 35.1374C30.2938 35.947 30.7574 36.7982 31.5699 37.0423C32.3829 37.2865 33.2394 36.8258 33.4822 36.0164C34.6596 32.0857 35.5762 28.2906 37.5926 24.6374C38.0006 23.8986 37.7278 22.9668 36.9834 22.5619C36.2408 22.1521 35.3052 22.423 34.8977 23.162Z" fill="#1E1E1E" style="fill:#1E1E1E;fill:color(display-p3 0.1176 0.1176 0.1176);fill-opacity:1;"/>
<path fill-rule="evenodd" clip-rule="evenodd" d="M28.3704 12.8575C19.7676 17.2851 11.0826 23.6188 4.33926 30.5572C3.75089 31.1634 3.7687 32.1323 4.37995 32.7175C4.9912 33.3028 5.96435 33.2895 6.55273 32.6833C13.0732 25.975 21.4727 19.8493 29.7903 15.5717C30.5426 15.1833 30.8349 14.2606 30.4428 13.5129C30.0506 12.7651 29.1227 12.469 28.3704 12.8575Z" fill="#1E1E1E" style="fill:#1E1E1E;fill:color(display-p3 0.1176 0.1176 0.1176);fill-opacity:1;"/>
<path fill-rule="evenodd" clip-rule="evenodd" d="M28.4564 5.5261C22.4055 2.7932 15.4082 2.81478 8.98314 3.7747C8.14414 3.90286 7.56855 4.68107 7.69779 5.5112C7.82621 6.34637 8.61181 6.9204 9.44949 6.79716C15.3016 5.92078 21.682 5.81814 27.1932 8.30635C27.9663 8.65575 28.8771 8.31504 29.2249 7.54952C29.5732 6.78414 29.229 5.87536 28.4564 5.5261Z" fill="#1E1E1E" style="fill:#1E1E1E;fill:color(display-p3 0.1176 0.1176 0.1176);fill-opacity:1;"/>
</svg>
