<svg width="32" height="34" viewBox="0 0 32 34" fill="none" xmlns="http://www.w3.org/2000/svg">
<path d="M1.41209 33.2845C1.03758 33.2845 0.67841 33.1384 0.413592 32.8783C0.148774 32.6182 0 32.2654 0 31.8976V1.38663C4.2011e-05 1.14563 0.0640251 0.908804 0.185643 0.699491C0.307261 0.490178 0.482315 0.315603 0.693552 0.192973C0.904789 0.0703425 1.14492 0.00388993 1.39027 0.00016565C1.63562 -0.00355863 1.87772 0.0555739 2.09272 0.171734L30.3345 15.4272C30.5559 15.547 30.7405 15.7228 30.8691 15.9365C30.9977 16.1502 31.0655 16.3939 31.0655 16.6421C31.0655 16.8903 30.9977 17.134 30.8691 17.3477C30.7405 17.5614 30.5559 17.7373 30.3345 17.857L2.09272 33.1125C1.88422 33.2253 1.6501 33.2844 1.41209 33.2845Z" fill="#1E1E1E" style="fill:#1E1E1E;fill:color(display-p3 0.1176 0.1176 0.1176);fill-opacity:1;"/>
</svg>
