<svg width="60" height="60" viewBox="0 0 60 60" fill="none" xmlns="http://www.w3.org/2000/svg">
<path d="M36.2417 20.4194C36.2417 23.1326 35.5282 25.5426 34.4274 27.2437C33.3203 28.9548 31.909 29.8387 30.4997 29.8387C29.0905 29.8387 27.6792 28.9548 26.572 27.2437C25.4713 25.5426 24.7578 23.1326 24.7578 20.4194C24.7578 17.7061 25.4713 15.2961 26.572 13.595C27.6792 11.8839 29.0905 11 30.4997 11C31.909 11 33.3203 11.8839 34.4274 13.595C35.5282 15.2961 36.2417 17.7061 36.2417 20.4194Z" stroke="#1E1E1E" style="stroke:#1E1E1E;stroke:color(display-p3 0.1176 0.1176 0.1176);stroke-opacity:1;" stroke-width="2"/>
<path d="M44.8229 36.5872C44.8229 36.985 44.6198 37.365 43.6938 37.8688C43.026 38.2322 42.1914 38.5502 41.1771 38.9367C40.7424 39.1023 40.2748 39.2805 39.7731 39.4802C36.8205 40.6557 33.163 42.4192 30.4088 46.307C26.8407 42.1459 23.2121 40.3728 20.4421 39.2453C20.001 39.0658 19.5979 38.9081 19.229 38.7638C18.3037 38.4019 17.5938 38.1242 17.0405 37.7972C16.68 37.5841 16.4738 37.3959 16.3549 37.2242C16.2485 37.0705 16.1777 36.8816 16.1777 36.5872C16.1777 35.2938 17.3748 33.797 20.0799 32.5657C22.6952 31.3753 26.3784 30.6128 30.5003 30.6128C34.6222 30.6128 38.3054 31.3753 40.9207 32.5657C43.6258 33.797 44.8229 35.2938 44.8229 36.5872Z" stroke="#1E1E1E" style="stroke:#1E1E1E;stroke:color(display-p3 0.1176 0.1176 0.1176);stroke-opacity:1;" stroke-width="2"/>
</svg>
