<svg width="25" height="31" viewBox="0 0 25 31" fill="none" xmlns="http://www.w3.org/2000/svg">
<path d="M17 8.5C17 10.6832 16.4255 12.6134 15.5495 13.9672C14.6671 15.3309 13.5663 16 12.5 16C11.4337 16 10.3329 15.3309 9.45048 13.9672C8.5745 12.6134 8 10.6832 8 8.5C8 6.31679 8.5745 4.38664 9.45048 3.03284C10.3329 1.66907 11.4337 1 12.5 1C13.5663 1 14.6671 1.66907 15.5495 3.03284C16.4255 4.38664 17 6.31679 17 8.5Z" stroke="#1E1E1E" style="stroke:#1E1E1E;stroke:color(display-p3 0.1176 0.1176 0.1176);stroke-opacity:1;" stroke-width="2"/>
<path d="M24 21.6897C24 21.9101 23.9125 22.1721 23.1751 22.5734C22.6417 22.8636 21.9784 23.1163 21.1581 23.4288C20.8014 23.5648 20.4149 23.712 19.9965 23.8786C17.6247 24.8229 14.673 26.2395 12.4121 29.3223C9.52504 26.0239 6.60018 24.5977 4.36408 23.6875C3.99427 23.537 3.65992 23.4062 3.35656 23.2875C2.61007 22.9955 2.0512 22.7769 1.61335 22.5181C1.33198 22.3518 1.18808 22.2147 1.11179 22.1045C1.04795 22.0122 1 21.8954 1 21.6897C1 20.751 1.88115 19.5754 4.07544 18.5766C6.17995 17.6187 9.15753 17 12.5 17C15.8425 17 18.8201 17.6187 20.9246 18.5766C23.1189 19.5754 24 20.751 24 21.6897Z" stroke="#1E1E1E" style="stroke:#1E1E1E;stroke:color(display-p3 0.1176 0.1176 0.1176);stroke-opacity:1;" stroke-width="2"/>
</svg>
